<svg width="800" height="400" viewBox="0 0 800 400" xmlns="http://www.w3.org/2000/svg"><mask id="satori_om-id"><rect x="0" y="0" width="800" height="400" fill="#fff"/></mask><rect x="0" y="0" width="800" height="400" fill="#15202b"/><mask id="satori_om-id-0"><rect x="363" y="176" width="74" height="48" fill="#fff"/></mask><path fill="white" d="M377.7 206.5L377.7 185.7L381.2 185.7L381.2 206.5Q381.2 209.2 380.2 211.2Q379.1 213.1 377.3 214.1Q375.4 215.1 372.9 215.1L372.9 215.1Q370.5 215.1 368.6 214.3Q366.8 213.4 365.7 211.8Q364.6 210.2 364.6 207.9L364.6 207.9L368.1 207.9Q368.1 209.2 368.7 210.1Q369.3 211 370.4 211.5Q371.5 212.0 372.9 212.0L372.9 212.0Q374.4 212.0 375.5 211.4Q376.5 210.7 377.1 209.5Q377.7 208.3 377.7 206.5L377.7 206.5ZM411.8 194.8L408.1 194.8Q407.6 193.3 406.9 192.2Q406.1 191.0 405.1 190.2Q404.0 189.4 402.7 189.0Q401.4 188.6 399.8 188.6L399.8 188.6Q397.2 188.6 395.1 189.9Q393 191.2 391.8 193.8Q390.5 196.4 390.5 200.2L390.5 200.2Q390.5 204.0 391.8 206.6Q393.0 209.2 395.2 210.5Q397.3 211.9 400.0 211.9L400.0 211.9Q402.5 211.9 404.5 210.8Q406.4 209.7 407.4 207.7Q408.5 205.8 408.5 203.1L408.5 203.1L409.6 203.3L400.8 203.3L400.8 200.2L411.9 200.2L411.9 203.3Q411.9 206.9 410.4 209.6Q408.9 212.2 406.2 213.7Q403.5 215.1 400.0 215.1L400.0 215.1Q396.2 215.1 393.3 213.3Q390.3 211.5 388.7 208.2Q387.1 204.8 387.1 200.2L387.1 200.2Q387.1 196.8 388.0 194.0Q389.0 191.2 390.7 189.3Q392.4 187.3 394.7 186.3Q397.0 185.3 399.8 185.3L399.8 185.3Q402.1 185.3 404.1 186.0Q406.1 186.6 407.7 187.9Q409.3 189.2 410.3 190.9Q411.4 192.6 411.8 194.8L411.8 194.8Z "/><mask id="satori_om-id-0-1"><rect x="422" y="176" width="15" height="48" fill="#fff"/></mask><path fill="rgb(59, 130,246)" d="M432.3 184.3L435.4 184.3L426.0 219.1L422.9 219.1L432.3 184.3Z "/></svg>